# xmcd CD database file
#
# Track frame offsets:
#	150
#	48617
#	71654
#	113364
#	122381
#	169836
#	189741
#	226053
#	268582
#	296380
#
# Disc length: 4136 seconds
#
# Revision: 0
# Processed by: cddbd v1.5.1PL0 Copyright (c) Steve Scherf et al.
# Submitted via: CDex 1.51
#
DISCID=8510260a
DTITLE=Nicholas McBride - rectangle
DYEAR=1900
DGENRE=Jazz
TTITLE0=Cut and Dry
TTITLE1=Pancakes
TTITLE2=Coffee Table
TTITLE3=Javier
TTITLE4=The One
TTITLE5=Rainicha
TTITLE6=Jacobism
TTITLE7=Dawn Run
TTITLE8=Crustacean (live)
TTITLE9=Chicken Beach
EXTD=
EXTT0=
EXTT1=
EXTT2=
EXTT3=
EXTT4=
EXTT5=
EXTT6=
EXTT7=
EXTT8=
EXTT9=
PLAYORDER=
